<svg xmlns="http://www.w3.org/2000/svg" width="130" height="40" viewBox="0 0 130 40">
  <g id="Group_3" data-name="Group 3" transform="translate(-151.869 -164.338)">
    <g id="Group_1" data-name="Group 1" transform="translate(174.668 164.338)">
      <path id="Path_1" data-name="Path 1" d="M208.52,168.358h-4.255V165.85h11.589v2.508H211.6v10.791H208.52Z" transform="translate(-204.265 -165.052)" fill="#242831"/>
      <path id="Path_2" data-name="Path 2" d="M236.256,177.493h-7.733a2.4,2.4,0,0,0,.988,1.5,3.268,3.268,0,0,0,1.938.551,3.924,3.924,0,0,0,1.415-.237,3.428,3.428,0,0,0,1.149-.75l1.577,1.71a5.3,5.3,0,0,1-4.217,1.653,6.66,6.66,0,0,1-3.059-.674,4.942,4.942,0,0,1-2.052-1.871,5.155,5.155,0,0,1-.722-2.717,5.226,5.226,0,0,1,.712-2.707,4.991,4.991,0,0,1,1.957-1.881,6.062,6.062,0,0,1,5.5-.028,4.724,4.724,0,0,1,1.909,1.852,5.525,5.525,0,0,1,.693,2.8Q236.313,176.752,236.256,177.493Zm-6.935-3.287a2.43,2.43,0,0,0-.836,1.558h5.034a2.452,2.452,0,0,0-.836-1.548,2.5,2.5,0,0,0-1.672-.579A2.552,2.552,0,0,0,229.322,174.206Z" transform="translate(-214.313 -167.671)" fill="#242831"/>
      <path id="Path_3" data-name="Path 3" d="M251.021,181.245a5.044,5.044,0,0,1-2.033-1.871,5.411,5.411,0,0,1,0-5.433,5.043,5.043,0,0,1,2.033-1.871,6.289,6.289,0,0,1,2.935-.674,5.694,5.694,0,0,1,2.821.674A4,4,0,0,1,258.535,174l-2.3,1.235a2.513,2.513,0,0,0-2.3-1.406,2.6,2.6,0,0,0-1.919.76,3.2,3.2,0,0,0,0,4.142,2.6,2.6,0,0,0,1.919.759,2.486,2.486,0,0,0,2.3-1.406l2.3,1.254a4.078,4.078,0,0,1-1.757,1.9,5.625,5.625,0,0,1-2.821.684A6.276,6.276,0,0,1,251.021,181.245Z" transform="translate(-225.042 -167.671)" fill="#242831"/>
      <path id="Path_4" data-name="Path 4" d="M280.109,169.2a4.521,4.521,0,0,1,1.169,3.382v5.851h-2.964v-5.4a2.666,2.666,0,0,0-.532-1.814,1.95,1.95,0,0,0-1.539-.6,2.357,2.357,0,0,0-1.785.693,2.87,2.87,0,0,0-.665,2.061v5.053h-2.964v-14.1h2.964v4.939a3.942,3.942,0,0,1,1.424-.9,5.159,5.159,0,0,1,1.824-.313A4.2,4.2,0,0,1,280.109,169.2Z" transform="translate(-235.702 -164.338)" fill="#242831"/>
      <path id="Path_5" data-name="Path 5" d="M219.306,201.851v13.3h-2.527l-6.63-8.074v8.074h-3.04v-13.3h2.546l6.611,8.074v-8.074Z" transform="translate(-205.608 -182.055)" fill="#242831"/>
      <path id="Path_6" data-name="Path 6" d="M245.076,213.493h-7.732a2.406,2.406,0,0,0,.988,1.5,3.272,3.272,0,0,0,1.938.551,3.935,3.935,0,0,0,1.415-.237,3.441,3.441,0,0,0,1.149-.75l1.577,1.709a5.3,5.3,0,0,1-4.217,1.653,6.672,6.672,0,0,1-3.059-.674,4.944,4.944,0,0,1-2.052-1.871,5.152,5.152,0,0,1-.722-2.717,5.226,5.226,0,0,1,.712-2.707,4.986,4.986,0,0,1,1.957-1.88,6.06,6.06,0,0,1,5.5-.029,4.716,4.716,0,0,1,1.909,1.853,5.523,5.523,0,0,1,.693,2.8Q245.133,212.753,245.076,213.493Zm-6.934-3.286a2.425,2.425,0,0,0-.836,1.558h5.034a2.452,2.452,0,0,0-.836-1.549,2.5,2.5,0,0,0-1.672-.579A2.552,2.552,0,0,0,238.142,210.207Z" transform="translate(-218.479 -184.673)" fill="#242831"/>
      <path id="Path_7" data-name="Path 7" d="M273.364,207.683,269.659,217.9H266.81l-2.3-6.346-2.375,6.346h-2.85L255.6,207.683h2.793l2.413,6.915,2.508-6.915h2.508l2.431,6.915,2.489-6.915Z" transform="translate(-228.51 -184.809)" fill="#242831"/>
      <path id="Path_8" data-name="Path 8" d="M291.666,217.606a6.489,6.489,0,0,1-1.938-.788l.988-2.128a6.214,6.214,0,0,0,1.653.712,6.911,6.911,0,0,0,1.9.276q1.881,0,1.88-.931a.658.658,0,0,0-.512-.626,7.57,7.57,0,0,0-1.577-.324,15.054,15.054,0,0,1-2.071-.437,3.205,3.205,0,0,1-1.415-.873,2.485,2.485,0,0,1-.6-1.786,2.8,2.8,0,0,1,.56-1.719,3.611,3.611,0,0,1,1.633-1.168,6.979,6.979,0,0,1,2.537-.418,9.961,9.961,0,0,1,2.156.237,6.029,6.029,0,0,1,1.776.655l-.987,2.109a5.9,5.9,0,0,0-2.945-.76,3,3,0,0,0-1.425.265.783.783,0,0,0-.475.684.679.679,0,0,0,.513.665,9.06,9.06,0,0,0,1.634.361,17.577,17.577,0,0,1,2.051.446,3.087,3.087,0,0,1,1.387.864,2.454,2.454,0,0,1,.589,1.748,2.7,2.7,0,0,1-.57,1.691,3.636,3.636,0,0,1-1.662,1.149,7.409,7.409,0,0,1-2.593.409A9.909,9.909,0,0,1,291.666,217.606Z" transform="translate(-244.628 -184.673)" fill="#242831"/>
      <path id="Path_9" data-name="Path 9" d="M314.982,207.774a5.331,5.331,0,0,1,2.08-.379v2.735c-.33-.025-.551-.037-.665-.037a2.716,2.716,0,0,0-1.995.712,2.88,2.88,0,0,0-.722,2.137v4.826h-2.964V207.547h2.831V208.9A3.3,3.3,0,0,1,314.982,207.774Z" transform="translate(-254.541 -184.673)" fill="#242831"/>
      <path id="Path_10" data-name="Path 10" d="M327.2,217.245a5.015,5.015,0,0,1-2-1.871,5.476,5.476,0,0,1,0-5.433,5,5,0,0,1,2-1.871,6.538,6.538,0,0,1,5.784,0,5.022,5.022,0,0,1,1.995,1.871,5.473,5.473,0,0,1,0,5.433,5.033,5.033,0,0,1-1.995,1.871,6.539,6.539,0,0,1-5.784,0Zm4.768-2.527a3.269,3.269,0,0,0,0-4.122,2.467,2.467,0,0,0-1.871-.769,2.5,2.5,0,0,0-1.881.769,3.237,3.237,0,0,0,0,4.122,2.5,2.5,0,0,0,1.881.769A2.468,2.468,0,0,0,331.964,214.718Z" transform="translate(-261.036 -184.673)" fill="#242831"/>
      <path id="Path_11" data-name="Path 11" d="M350.776,217.245a5.019,5.019,0,0,1-2-1.871,5.476,5.476,0,0,1,0-5.433,5.008,5.008,0,0,1,2-1.871,6.539,6.539,0,0,1,5.785,0,5.024,5.024,0,0,1,1.994,1.871,5.473,5.473,0,0,1,0,5.433,5.035,5.035,0,0,1-1.994,1.871,6.54,6.54,0,0,1-5.785,0Zm4.768-2.527a3.269,3.269,0,0,0,0-4.122,2.467,2.467,0,0,0-1.871-.769,2.5,2.5,0,0,0-1.881.769,3.237,3.237,0,0,0,0,4.122,2.5,2.5,0,0,0,1.881.769A2.468,2.468,0,0,0,355.544,214.718Z" transform="translate(-272.173 -184.673)" fill="#242831"/>
      <path id="Path_12" data-name="Path 12" d="M389.208,208.525a4.607,4.607,0,0,1,1.131,3.392v5.851h-2.964v-5.4a2.768,2.768,0,0,0-.5-1.814,1.77,1.77,0,0,0-1.434-.6,2.113,2.113,0,0,0-1.653.674,2.906,2.906,0,0,0-.608,2v5.13h-2.964v-5.4q0-2.412-1.938-2.412a2.09,2.09,0,0,0-1.633.674,2.906,2.906,0,0,0-.608,2v5.13h-2.964V207.547H375.9v1.177a3.745,3.745,0,0,1,1.4-.987,4.692,4.692,0,0,1,1.814-.342,4.392,4.392,0,0,1,1.957.427,3.463,3.463,0,0,1,1.406,1.245,4.192,4.192,0,0,1,1.586-1.235,5.005,5.005,0,0,1,2.1-.437A4.122,4.122,0,0,1,389.208,208.525Z" transform="translate(-283.989 -184.673)" fill="#242831"/>
    </g>
    <g id="Group_2" data-name="Group 2" transform="translate(151.869 164.338)">
      <path id="Path_13" data-name="Path 13" d="M170.314,164.338H151.869v31.945h2.89V172.031Z" transform="translate(-151.869 -164.338)" fill="#614981"/>
      <path id="Path_14" data-name="Path 14" d="M157.345,235.775,172.9,227.72H157.345Z" transform="translate(-154.455 -195.775)" fill="#c5b2d6"/>
      <path id="Path_15" data-name="Path 15" d="M157.345,172.393v25.393H172.9V164.338Z" transform="translate(-154.455 -164.338)" fill="#73b3e3"/>
    </g>
  </g>
</svg>
