<svg xmlns="http://www.w3.org/2000/svg" width="109.913" height="34.042" viewBox="0 0 109.913 34.042">
  <g id="logo-grey" transform="translate(-108.928 -184.397)">
    <g id="Group_5" data-name="Group 5" transform="translate(131.598 184.397)">
      <path id="Path_16" data-name="Path 16" d="M164.816,187.966h-3.491v-2.057h9.507v2.057h-3.491v8.852h-2.525Z" transform="translate(-161.325 -185.254)" fill="#bdbdbd"/>
      <path id="Path_17" data-name="Path 17" d="M191.39,196.456h-6.343a1.971,1.971,0,0,0,.81,1.231,2.68,2.68,0,0,0,1.59.452,3.217,3.217,0,0,0,1.161-.195,2.814,2.814,0,0,0,.943-.616l1.293,1.4a4.346,4.346,0,0,1-3.459,1.356,5.471,5.471,0,0,1-2.509-.553A4.056,4.056,0,0,1,183.193,198a4.226,4.226,0,0,1-.593-2.229,4.287,4.287,0,0,1,.585-2.221,4.092,4.092,0,0,1,1.605-1.543,4.97,4.97,0,0,1,4.512-.023,3.873,3.873,0,0,1,1.566,1.519,4.532,4.532,0,0,1,.568,2.3Q191.437,195.848,191.39,196.456Zm-5.689-2.7a2,2,0,0,0-.686,1.278h4.13a2.013,2.013,0,0,0-.686-1.27,2.05,2.05,0,0,0-1.371-.475A2.1,2.1,0,0,0,185.7,193.76Z" transform="translate(-173.39 -188.398)" fill="#bdbdbd"/>
      <path id="Path_18" data-name="Path 18" d="M207.584,199.534A4.138,4.138,0,0,1,205.916,198a4.436,4.436,0,0,1,0-4.457,4.139,4.139,0,0,1,1.667-1.535,5.162,5.162,0,0,1,2.408-.553,4.672,4.672,0,0,1,2.314.553,3.285,3.285,0,0,1,1.442,1.582l-1.886,1.013a2.061,2.061,0,0,0-1.885-1.153,2.135,2.135,0,0,0-1.574.623,2.627,2.627,0,0,0,0,3.4,2.134,2.134,0,0,0,1.574.623,2.039,2.039,0,0,0,1.885-1.153l1.886,1.029a3.351,3.351,0,0,1-1.442,1.558,4.616,4.616,0,0,1-2.314.561A5.156,5.156,0,0,1,207.584,199.534Z" transform="translate(-186.272 -188.398)" fill="#bdbdbd"/>
      <path id="Path_19" data-name="Path 19" d="M235.5,188.387a3.707,3.707,0,0,1,.959,2.774v4.8h-2.431v-4.426a2.186,2.186,0,0,0-.437-1.488,1.6,1.6,0,0,0-1.262-.491,1.934,1.934,0,0,0-1.465.569,2.356,2.356,0,0,0-.545,1.691v4.146h-2.432V184.4h2.432v4.052a3.224,3.224,0,0,1,1.168-.74,4.233,4.233,0,0,1,1.5-.257A3.448,3.448,0,0,1,235.5,188.387Z" transform="translate(-199.072 -184.397)" fill="#bdbdbd"/>
      <path id="Path_20" data-name="Path 20" d="M174.174,221.909v10.91H172.1l-5.439-6.623v6.623h-2.494v-10.91h2.088l5.423,6.623v-6.623Z" transform="translate(-162.937 -205.67)" fill="#bdbdbd"/>
      <path id="Path_21" data-name="Path 21" d="M200.21,232.456h-6.343a1.976,1.976,0,0,0,.81,1.232,2.686,2.686,0,0,0,1.59.452,3.23,3.23,0,0,0,1.161-.195,2.821,2.821,0,0,0,.942-.616l1.294,1.4a4.348,4.348,0,0,1-3.46,1.356,5.465,5.465,0,0,1-2.509-.554A4.052,4.052,0,0,1,192.013,234a4.226,4.226,0,0,1-.592-2.229,4.291,4.291,0,0,1,.584-2.221,4.1,4.1,0,0,1,1.605-1.542,4.968,4.968,0,0,1,4.512-.024,3.866,3.866,0,0,1,1.566,1.52,4.53,4.53,0,0,1,.569,2.3Q200.258,231.849,200.21,232.456Zm-5.688-2.7a1.987,1.987,0,0,0-.686,1.278h4.13a2.015,2.015,0,0,0-.686-1.271,2.053,2.053,0,0,0-1.371-.475A2.093,2.093,0,0,0,194.522,229.76Z" transform="translate(-178.392 -208.814)" fill="#bdbdbd"/>
      <path id="Path_22" data-name="Path 22" d="M227.233,227.741l-3.039,8.385h-2.338l-1.885-5.206-1.948,5.206h-2.338l-3.023-8.385h2.291l1.979,5.673,2.057-5.673h2.057l1.995,5.673,2.042-5.673Z" transform="translate(-190.437 -208.977)" fill="#bdbdbd"/>
      <path id="Path_23" data-name="Path 23" d="M248.378,235.83a5.345,5.345,0,0,1-1.59-.646l.81-1.745a5.1,5.1,0,0,0,1.356.584,5.666,5.666,0,0,0,1.558.226q1.543,0,1.543-.764a.54.54,0,0,0-.421-.514,6.2,6.2,0,0,0-1.294-.265,12.331,12.331,0,0,1-1.7-.358,2.631,2.631,0,0,1-1.161-.716,2.04,2.04,0,0,1-.491-1.465,2.294,2.294,0,0,1,.459-1.41,2.965,2.965,0,0,1,1.34-.958,5.733,5.733,0,0,1,2.081-.343,8.166,8.166,0,0,1,1.768.2,4.92,4.92,0,0,1,1.457.538l-.81,1.73a4.841,4.841,0,0,0-2.416-.624,2.457,2.457,0,0,0-1.169.218.642.642,0,0,0-.39.561.556.556,0,0,0,.421.545,7.427,7.427,0,0,0,1.34.3,14.353,14.353,0,0,1,1.683.366,2.532,2.532,0,0,1,1.138.709,2.012,2.012,0,0,1,.483,1.434,2.215,2.215,0,0,1-.468,1.387,2.985,2.985,0,0,1-1.363.942,6.078,6.078,0,0,1-2.127.336A8.144,8.144,0,0,1,248.378,235.83Z" transform="translate(-209.79 -208.814)" fill="#bdbdbd"/>
      <path id="Path_24" data-name="Path 24" d="M271.275,227.765a4.376,4.376,0,0,1,1.707-.312V229.7c-.271-.021-.452-.031-.545-.031a2.228,2.228,0,0,0-1.636.584,2.361,2.361,0,0,0-.593,1.753v3.959h-2.431v-8.385H270.1v1.107A2.713,2.713,0,0,1,271.275,227.765Z" transform="translate(-221.693 -208.814)" fill="#bdbdbd"/>
      <path id="Path_25" data-name="Path 25" d="M283.765,235.534A4.113,4.113,0,0,1,282.121,234a4.492,4.492,0,0,1,0-4.457,4.108,4.108,0,0,1,1.645-1.535,5.361,5.361,0,0,1,4.746,0,4.121,4.121,0,0,1,1.636,1.535,4.49,4.49,0,0,1,0,4.457,4.126,4.126,0,0,1-1.636,1.535,5.361,5.361,0,0,1-4.746,0Zm3.911-2.073a2.681,2.681,0,0,0,0-3.381,2.023,2.023,0,0,0-1.535-.631,2.048,2.048,0,0,0-1.542.631,2.656,2.656,0,0,0,0,3.381,2.049,2.049,0,0,0,1.542.631A2.024,2.024,0,0,0,287.677,233.461Z" transform="translate(-229.492 -208.814)" fill="#bdbdbd"/>
      <path id="Path_26" data-name="Path 26" d="M307.345,235.534A4.113,4.113,0,0,1,305.7,234a4.492,4.492,0,0,1,0-4.457,4.108,4.108,0,0,1,1.645-1.535,5.361,5.361,0,0,1,4.745,0,4.119,4.119,0,0,1,1.636,1.535,4.487,4.487,0,0,1,0,4.457,4.124,4.124,0,0,1-1.636,1.535,5.361,5.361,0,0,1-4.745,0Zm3.911-2.073a2.681,2.681,0,0,0,0-3.381,2.022,2.022,0,0,0-1.535-.631,2.048,2.048,0,0,0-1.542.631,2.655,2.655,0,0,0,0,3.381,2.05,2.05,0,0,0,1.542.631A2.024,2.024,0,0,0,311.257,233.461Z" transform="translate(-242.864 -208.814)" fill="#bdbdbd"/>
      <path id="Path_27" data-name="Path 27" d="M343.368,228.38a3.781,3.781,0,0,1,.927,2.782v4.8h-2.431v-4.426a2.27,2.27,0,0,0-.413-1.488,1.453,1.453,0,0,0-1.177-.491,1.735,1.735,0,0,0-1.356.553,2.386,2.386,0,0,0-.5,1.644v4.208h-2.431v-4.426q0-1.979-1.59-1.979a1.716,1.716,0,0,0-1.34.553,2.386,2.386,0,0,0-.5,1.644v4.208h-2.431v-8.385h2.322v.966a3.064,3.064,0,0,1,1.145-.81,3.851,3.851,0,0,1,1.489-.281,3.606,3.606,0,0,1,1.605.351,2.848,2.848,0,0,1,1.153,1.021,3.443,3.443,0,0,1,1.3-1.013,4.106,4.106,0,0,1,1.722-.359A3.383,3.383,0,0,1,343.368,228.38Z" transform="translate(-257.052 -208.814)" fill="#bdbdbd"/>
    </g>
    <g id="Group_6" data-name="Group 6" transform="translate(108.929 184.397)">
      <path id="Path_28" data-name="Path 28" d="M124.06,184.4H108.929v27.434H111.3V191Z" transform="translate(-108.929 -184.397)" fill="#bdbdbd"/>
      <path id="Path_29" data-name="Path 29" d="M114.4,254.387l12.761-6.607H114.4Z" transform="translate(-112.034 -220.345)" fill="#bdbdbd"/>
      <path id="Path_30" data-name="Path 30" d="M114.4,191v20.831h12.761V184.4Z" transform="translate(-112.034 -184.397)" fill="#e0e0e0"/>
    </g>
  </g>
</svg>
